<svg width="1200" height="900" viewBox="0 0 1200 900" fill="none" xmlns="http://www.w3.org/2000/svg">
  <rect width="1200" height="900" rx="36" fill="#F6EFE6"/>
  <rect x="40" y="40" width="1120" height="820" rx="28" fill="url(#paint0_linear)"/>
  <circle cx="895" cy="232" r="162" fill="url(#paint1_radial)" fill-opacity="0.8"/>
  <circle cx="348" cy="644" r="236" fill="url(#paint2_radial)" fill-opacity="0.72"/>
  <path d="M318 574C318 496.68 380.68 434 458 434H736C813.32 434 876 496.68 876 574V582C876 659.32 813.32 722 736 722H458C380.68 722 318 659.32 318 582V574Z" fill="#EFE5D8"/>
  <path d="M364 590C364 538.085 406.085 496 458 496H736C787.915 496 830 538.085 830 590C830 641.915 787.915 684 736 684H458C406.085 684 364 641.915 364 590Z" fill="#2F2721"/>
  <path d="M505 332C505 279.533 547.533 237 600 237C652.467 237 695 279.533 695 332V367H505V332Z" fill="#D8B06F"/>
  <path d="M600 382C657.99 382 705 429.01 705 487C705 544.99 657.99 592 600 592C542.01 592 495 544.99 495 487C495 429.01 542.01 382 600 382Z" fill="url(#paint3_radial)"/>
  <circle cx="600" cy="487" r="46" fill="#FFF8EE"/>
  <path d="M289 210H516" stroke="#D7B782" stroke-width="10" stroke-linecap="round" stroke-opacity="0.7"/>
  <path d="M728 734H956" stroke="#E6D5BC" stroke-width="10" stroke-linecap="round" stroke-opacity="0.92"/>
  <defs>
    <linearGradient id="paint0_linear" x1="135" y1="120" x2="1013" y2="781" gradientUnits="userSpaceOnUse">
      <stop stop-color="#FFF9F2"/>
      <stop offset="1" stop-color="#EFE2D1"/>
    </linearGradient>
    <radialGradient id="paint1_radial" cx="0" cy="0" r="1" gradientUnits="userSpaceOnUse" gradientTransform="translate(895 232) rotate(90) scale(162)">
      <stop stop-color="#F1D7A6"/>
      <stop offset="1" stop-color="#F1D7A6" stop-opacity="0"/>
    </radialGradient>
    <radialGradient id="paint2_radial" cx="0" cy="0" r="1" gradientUnits="userSpaceOnUse" gradientTransform="translate(348 644) rotate(90) scale(236)">
      <stop stop-color="#EADCCB"/>
      <stop offset="1" stop-color="#EADCCB" stop-opacity="0"/>
    </radialGradient>
    <radialGradient id="paint3_radial" cx="0" cy="0" r="1" gradientUnits="userSpaceOnUse" gradientTransform="translate(600 487) rotate(90) scale(105)">
      <stop stop-color="#E8C98E"/>
      <stop offset="1" stop-color="#B88A3D"/>
    </radialGradient>
  </defs>
</svg>
